<svg width="109" height="108" viewBox="0 0 109 108" fill="none" xmlns="http://www.w3.org/2000/svg">
<g id="CACSA Logo">
<path id="Vector" fill-rule="evenodd" clip-rule="evenodd" d="M54.2227 2.91843C82.5343 2.91843 105.485 25.789 105.485 54.0013C105.485 82.2136 82.5343 105.084 54.2227 105.084C25.9111 105.084 2.96058 82.2136 2.96058 54.0013C2.96058 25.789 25.9111 2.91843 54.2227 2.91843Z" fill="white"/>
<path id="Vector_2" fill-rule="evenodd" clip-rule="evenodd" d="M54.2201 0C84.1497 0 108.411 24.1768 108.411 54.0013C108.411 83.8258 84.1497 108 54.2201 108C24.2905 108 0.0316162 83.8232 0.0316162 54.0013C0.0316162 24.1794 24.2931 0 54.2201 0Z" fill="white"/>
<path id="Vector_3" d="M88.7954 19.5504C84.2597 15.0199 78.8702 11.4272 72.9367 8.97856C67.0031 6.52996 60.6424 5.27378 54.2201 5.2822C27.2169 5.2822 5.31728 27.0953 5.31728 54.0091C5.31728 66.9322 10.4695 79.3261 19.6406 88.4642C28.8116 97.6022 41.2503 102.736 54.2201 102.736C81.2259 102.736 103.123 80.9229 103.123 54.0091C103.131 47.608 101.87 41.2685 99.4109 35.3548C96.9521 29.4412 93.3445 24.0701 88.7954 19.5504ZM54.2201 5.0593C67.247 5.05998 79.7401 10.2166 88.9515 19.3948C98.1629 28.5731 103.338 41.0213 103.339 54.0013C103.339 81.0266 81.3482 102.941 54.2201 102.941C41.1941 102.939 28.702 97.7828 19.4913 88.6052C10.2805 79.4276 5.10536 66.9804 5.10398 54.0013C5.10398 26.9734 27.0946 5.0593 54.2201 5.0593Z" fill="#221F1F"/>
<path id="Vector_4" fill-rule="evenodd" clip-rule="evenodd" d="M54.2201 19.5141C61.0663 19.511 67.7597 21.531 73.4536 25.3187C79.1475 29.1063 83.5862 34.4914 86.2083 40.7928C88.8304 47.0943 89.518 54.029 88.1843 60.7199C86.8506 67.4108 83.5553 73.5573 78.7154 78.3819C73.8755 83.2066 67.7083 86.4928 60.9939 87.8247C54.2794 89.1567 47.3193 88.4746 40.994 85.8648C34.6686 83.255 29.262 78.8347 25.4582 73.163C21.6543 67.4913 19.624 60.8229 19.624 54.0013C19.624 44.8574 23.2684 36.0878 29.756 29.6206C36.2436 23.1535 45.0432 19.5182 54.2201 19.5141Z" fill="#00A551"/>
<path id="Vector_5" fill-rule="evenodd" clip-rule="evenodd" d="M39.7261 28.8914C47.0459 28.7437 53.1978 33.8159 54.1837 40.4977C54.8678 33.7848 60.7856 28.4664 68.108 28.316C76.0001 28.1579 82.5343 34.0648 82.7008 41.5112C82.7641 44.3157 81.9084 47.0645 80.2635 49.3412L54.2149 84.0305L28.6033 50.4816C26.8152 48.258 25.8098 45.5105 25.742 42.6619C25.5729 35.2155 31.8341 29.0495 39.7287 28.8914" fill="white"/>
<path id="Vector_6" d="M90.0726 69.9464L90.5591 68.9796L95.7823 71.5844L95.3063 72.5279L90.364 73.4117L93.9615 75.2052L93.4724 76.1772L88.2492 73.5853L88.7226 72.6393L93.6649 71.7529L90.0726 69.9464ZM87.2633 76.7759C87.0581 77.0549 86.9299 77.3827 86.8915 77.7266C86.8532 78.0704 86.9061 78.4182 87.0448 78.7354C87.1903 79.0563 87.4172 79.3339 87.7032 79.5407C87.9892 79.7475 88.3245 79.8764 88.6758 79.9146C89.0219 79.9484 89.371 79.894 89.6903 79.7565C90.0089 79.6189 90.284 79.3976 90.4862 79.1164C90.6914 78.8409 90.8165 78.5145 90.8478 78.1729C90.8911 77.6482 90.7282 77.1273 90.3933 76.7201C90.0584 76.3129 89.5778 76.0513 89.053 75.9906C88.7124 75.9519 88.3676 76.0034 88.0533 76.1399C87.7391 76.2764 87.4666 76.4931 87.2633 76.7681V76.7759ZM86.4465 76.2005C86.7673 75.7546 87.1971 75.3977 87.6951 75.1638C88.0561 74.9984 88.4466 74.9063 88.8437 74.8931C89.2408 74.8798 89.6366 74.9456 90.0079 75.0865C90.3792 75.2274 90.7185 75.4407 91.0061 75.7139C91.2937 75.9871 91.5237 76.3146 91.6828 76.6774C91.8916 77.1631 91.967 77.6953 91.9013 78.2196C91.8275 78.7646 91.6186 79.2827 91.2934 79.7271C90.9682 80.1715 90.537 80.5281 90.0388 80.7648C89.5568 80.986 89.0244 81.0754 88.4963 81.024C88.099 80.9889 87.713 80.8741 87.3615 80.6864C87.01 80.4986 86.7003 80.2418 86.4511 79.9316C86.202 79.6213 86.0185 79.2639 85.9117 78.881C85.805 78.4981 85.7772 78.0977 85.8301 77.7038C85.9031 77.1584 86.1154 76.6408 86.4465 76.2005V76.2005ZM83.6424 79.8913L84.3864 79.0593L88.7434 82.9471L87.9995 83.7791L83.6424 79.8913ZM80.0658 83.5199L83.4473 80.1894L84.1445 80.8944L82.8439 82.1644L86.2462 85.6064L85.4451 86.3839L82.0583 82.9393L80.7577 84.2119L80.0658 83.5199ZM79.8811 88.2915L81.4782 87.0086L79.1371 85.7411L79.8811 88.2915ZM83.5696 88.136L82.3939 87.501L80.1724 89.2842L80.5418 90.5801L79.6392 91.3059L77.9692 85.1735L78.8718 84.4478L84.506 87.3973L83.5696 88.136ZM74.905 87.2289L75.8492 86.6327L78.9707 91.5573L78.0264 92.1534L74.905 87.2289ZM74.905 89.3023C74.6204 89.1791 74.3126 89.1181 74.0023 89.1235C73.6806 89.1247 73.364 89.2039 73.0798 89.3542C72.7957 89.5046 72.5525 89.7216 72.3714 89.9866C72.1782 90.2681 72.0666 90.5972 72.0488 90.9378C72.0301 91.2848 72.1012 91.6307 72.2551 91.9425C72.409 92.2543 72.6408 92.5214 72.928 92.7184C73.2055 92.9086 73.5286 93.0222 73.8645 93.0476C74.2121 93.0708 74.5597 93.001 74.8711 92.8454C75.1301 92.7165 75.3594 92.5356 75.5449 92.3141C75.7397 92.0843 75.8905 91.8207 75.9897 91.5365L76.9053 91.9046C76.7676 92.318 76.5522 92.7015 76.2706 93.0346C75.9998 93.3603 75.6629 93.6253 75.2821 93.8122C74.7994 94.0542 74.2608 94.1642 73.7214 94.131C73.1925 94.1003 72.6815 93.9288 72.2418 93.6343C71.8021 93.3398 71.4498 92.9331 71.2216 92.4566C70.9813 91.9817 70.8769 91.4499 70.9199 90.9197C70.9598 90.3974 71.1395 89.8953 71.4401 89.4656C71.7548 89.0201 72.1795 88.6631 72.6731 88.4289C73.0518 88.2459 73.4627 88.1385 73.8827 88.1127C74.2992 88.0848 74.717 88.1421 75.1105 88.2812L74.905 89.3023ZM67.8036 91.718C67.4724 91.8259 67.1767 92.0211 66.9478 92.283C66.7747 92.4793 66.6421 92.7078 66.5578 92.9553C66.4735 93.2028 66.439 93.4644 66.4564 93.7252C66.4738 93.986 66.5427 94.2408 66.6592 94.475C66.7757 94.7092 66.9374 94.9182 67.1351 95.09C67.3973 95.3189 67.7146 95.4761 68.056 95.5461C68.3962 95.6164 68.7491 95.5949 69.0782 95.4839C69.4044 95.3747 69.6947 95.1794 69.9184 94.9189C70.1434 94.6586 70.2959 94.344 70.3606 94.0066C70.4285 93.6606 70.4034 93.303 70.2878 92.9698C70.1784 92.636 69.9818 92.3372 69.7181 92.1041C69.4616 91.8774 69.1492 91.7227 68.8129 91.6558C68.4747 91.5832 68.1231 91.6038 67.7958 91.7154L67.8036 91.718ZM67.4681 90.7771C67.9889 90.5953 68.5478 90.5498 69.0912 90.6449C69.6146 90.7336 70.1036 90.9633 70.5053 91.3092C70.907 91.655 71.206 92.1038 71.3699 92.607C71.5447 93.1066 71.5798 93.6441 71.4713 94.1621C71.3597 94.6796 71.112 95.1581 70.7534 95.5487C70.3829 95.957 69.911 96.2609 69.3852 96.4299C68.8634 96.6115 68.3033 96.6552 67.7594 96.557C67.2373 96.4616 66.7499 96.2299 66.347 95.8857C66.0426 95.6288 65.7936 95.3132 65.6149 94.9579C65.4362 94.6026 65.3315 94.2149 65.3072 93.8183C65.2829 93.4216 65.3395 93.0241 65.4735 92.6498C65.6074 92.2755 65.8161 91.932 66.0868 91.6402C66.4633 91.2399 66.936 90.942 67.4603 90.7745L67.4681 90.7771ZM64.3102 93.4053C63.9878 93.2959 63.6533 93.2263 63.3139 93.1979C63.0326 93.1696 62.7486 93.1827 62.4712 93.2368C62.2533 93.2767 62.0512 93.3773 61.8885 93.5271C61.8267 93.5838 61.7817 93.6563 61.7583 93.7367C61.7349 93.8171 61.7341 93.9024 61.7558 93.9832C61.7724 94.0574 61.8041 94.1273 61.8488 94.1889C61.8935 94.2504 61.9504 94.3021 62.0159 94.3409C62.1557 94.4265 62.3115 94.4829 62.4738 94.5068C62.7071 94.545 62.9425 94.5692 63.1787 94.5794C63.5228 94.5949 63.8654 94.6356 64.2036 94.7012C64.4778 94.7585 64.734 94.8812 64.9501 95.0589C65.1931 95.2696 65.3564 95.5567 65.4131 95.8727C65.4956 96.1949 65.4709 96.535 65.3429 96.8421C65.2072 97.1518 64.9863 97.4169 64.7056 97.6067C64.3807 97.8298 64.0147 97.9866 63.6287 98.068C63.1824 98.1696 62.721 98.1872 62.2683 98.1198C61.8286 98.0592 61.4032 97.9215 61.0119 97.7129L61.2538 96.6762C61.5975 96.874 61.9735 97.01 62.3645 97.0779C62.7079 97.147 63.0616 97.147 63.405 97.0779C63.6592 97.0357 63.8949 96.9183 64.0813 96.741C64.1414 96.6787 64.187 96.604 64.2148 96.5222C64.2426 96.4403 64.252 96.3534 64.2424 96.2676C64.2327 96.1817 64.2041 96.099 64.1588 96.0254C64.1134 95.9518 64.0523 95.889 63.9799 95.8416C63.8391 95.757 63.6824 95.7023 63.5194 95.6809C63.3426 95.6524 63.1032 95.6317 62.8015 95.6135C62.4595 95.5977 62.1189 95.5597 61.7818 95.4995C61.5105 95.4464 61.2567 95.3271 61.0431 95.1522C60.8008 94.9467 60.638 94.6635 60.5827 94.3513C60.5044 94.0441 60.5262 93.72 60.6451 93.426C60.7764 93.1259 60.9901 92.869 61.2616 92.6847C61.5846 92.4618 61.9489 92.3049 62.3333 92.2234C62.7041 92.1392 63.0853 92.1095 63.4648 92.1352C63.8281 92.1547 64.1866 92.2271 64.5287 92.3504L64.3102 93.4053ZM59.8881 94.2891C59.5869 94.1343 59.2681 94.016 58.9387 93.9366C58.6646 93.866 58.3813 93.8371 58.0985 93.8511C57.8765 93.8555 57.6606 93.9239 57.4768 94.048C57.4083 94.0957 57.3536 94.1607 57.3185 94.2362C57.2833 94.3118 57.2688 94.3953 57.2765 94.4783C57.282 94.5524 57.3026 94.6247 57.337 94.6906C57.3714 94.7566 57.419 94.8149 57.4768 94.8619C57.6036 94.9669 57.7492 95.0469 57.906 95.0977C58.0751 95.1522 58.304 95.2118 58.5927 95.274C58.9311 95.3412 59.2641 95.433 59.589 95.5487C59.8508 95.6456 60.0848 95.8049 60.2705 96.0127C60.4787 96.2584 60.597 96.5673 60.6061 96.8887C60.6395 97.2191 60.5637 97.5512 60.3902 97.8347C60.2081 98.1192 59.9506 98.3479 59.6462 98.4957C59.2901 98.6661 58.9039 98.7656 58.5095 98.7885C58.054 98.8239 57.5959 98.7729 57.1595 98.6382C56.7337 98.5106 56.3333 98.3107 55.9759 98.0473L56.3687 97.0675C56.6802 97.3137 57.0323 97.504 57.4092 97.63C57.7421 97.7506 58.0959 97.8035 58.4497 97.7855C58.7069 97.7802 58.9567 97.699 59.1676 97.5522C59.2469 97.4954 59.3098 97.4188 59.35 97.3301C59.3902 97.2413 59.4062 97.1437 59.3965 97.0468C59.3931 96.9708 59.3742 96.8963 59.3411 96.8277C59.3081 96.7591 59.2614 96.6979 59.204 96.6477C59.0791 96.5426 58.9339 96.4641 58.7774 96.417C58.5473 96.3471 58.3138 96.2891 58.0777 96.2433C57.7419 96.1791 57.4108 96.0925 57.0866 95.9841C56.8265 95.8918 56.5933 95.7369 56.4077 95.5332C56.2018 95.2914 56.0844 94.9871 56.0748 94.6701C56.044 94.3547 56.1151 94.0378 56.2777 93.7655C56.4525 93.4881 56.7022 93.2653 56.9982 93.1227C57.3512 92.9513 57.735 92.8518 58.1271 92.8299C58.5062 92.8011 58.8875 92.8282 59.2587 92.9102C59.6139 92.9852 59.9565 93.1109 60.2757 93.2834L59.8881 94.2891ZM51.7984 96.7384L53.8507 96.8109L52.9247 94.3435L51.7984 96.7384ZM54.6883 99.0296L54.2149 97.7803L51.3536 97.6792L50.7917 98.8896L49.6342 98.8482L52.4018 93.1253L53.562 93.1668L55.8797 99.071L54.6883 99.0296ZM47.8367 92.2908C47.9819 92.3167 48.1109 92.3986 48.1957 92.5188C48.2393 92.584 48.269 92.6575 48.2829 92.7347C48.2968 92.8118 48.2945 92.891 48.2763 92.9672C48.2631 93.0421 48.2367 93.1141 48.1983 93.1798C48.1593 93.242 48.1073 93.3119 48.0422 93.3975L47.3321 94.2891L46.8118 94.188L47.3321 93.2808C47.2621 93.2161 47.2107 93.134 47.1833 93.0428C47.1558 92.9517 47.1533 92.8549 47.176 92.7625C47.187 92.6861 47.2133 92.6127 47.2536 92.5468C47.2938 92.4808 47.3471 92.4237 47.4101 92.3789C47.4734 92.334 47.5456 92.3031 47.6219 92.2883C47.6982 92.2736 47.7768 92.2753 47.8523 92.2933L47.8367 92.2908ZM45.956 93.8044C45.7157 93.5661 45.4476 93.3573 45.1575 93.1824C44.9158 93.0322 44.6527 92.9195 44.3771 92.848C44.1649 92.7851 43.939 92.7851 43.7268 92.848C43.6461 92.8714 43.5734 92.9164 43.5165 92.9781C43.4597 93.0398 43.4208 93.1158 43.4042 93.1979C43.3847 93.2702 43.3803 93.3458 43.3915 93.4198C43.4027 93.4939 43.4292 93.5648 43.4693 93.6282C43.5571 93.7662 43.6711 93.886 43.8048 93.9806C43.9505 94.0843 44.1508 94.2113 44.4057 94.3565C44.7083 94.5223 44.9986 94.7094 45.2745 94.9163C45.4979 95.0873 45.6764 95.3096 45.7948 95.5643C45.9195 95.8608 45.9388 96.191 45.8494 96.4999C45.7814 96.8249 45.6088 97.1188 45.3578 97.3371C45.0982 97.5546 44.7829 97.6955 44.4473 97.744C44.0561 97.8004 43.6576 97.7801 43.2742 97.6844C42.8295 97.5796 42.4086 97.3923 42.0334 97.1323C41.6657 96.8839 41.3444 96.5734 41.084 96.2148L41.7551 95.3984C41.9771 95.7266 42.2543 96.0142 42.5745 96.2485C42.8564 96.4626 43.1783 96.6185 43.5213 96.7073C43.7672 96.7815 44.0297 96.7815 44.2757 96.7073C44.3569 96.6773 44.4306 96.63 44.4917 96.5688C44.5527 96.5075 44.5996 96.4337 44.6291 96.3525C44.6586 96.2713 44.6699 96.1847 44.6623 96.0987C44.6547 96.0127 44.6284 95.9294 44.5852 95.8546C44.4956 95.7167 44.3788 95.5986 44.2418 95.5072C44.0962 95.4036 43.8907 95.2792 43.628 95.1314C43.3281 94.9668 43.0396 94.7823 42.7644 94.5794C42.5404 94.4143 42.3616 94.196 42.2441 93.9444C42.1186 93.6526 42.0984 93.3266 42.1869 93.0217C42.2525 92.7121 42.4156 92.4315 42.6525 92.2208C42.9033 92.0093 43.209 91.8727 43.5343 91.8268C43.9227 91.7683 44.3189 91.7877 44.6997 91.8838C45.427 92.0578 46.0905 92.4324 46.6141 92.9646L45.956 93.8044ZM38.3839 89.9063L42.806 91.6894L42.434 92.607L40.7484 91.9253L38.9276 96.4014L37.8871 95.979L39.7079 91.5028L38.0223 90.8212L38.3839 89.9063ZM37.0963 89.2946L38.0666 89.7767L35.4653 94.9811L34.5185 94.5094L33.6315 89.5849L31.8315 93.1668L30.856 92.6795L33.4572 87.4751L34.4041 87.9494L35.2937 92.8739L37.0963 89.2946ZM29.7505 84.7199L33.2335 87.1978L32.6638 87.9909L30.0938 86.1584L29.2536 87.3274L31.5609 88.9706L30.9939 89.7611L28.6866 88.1231L27.8334 89.3153L30.4866 91.2048L29.917 91.9953L26.3559 89.4579L29.7505 84.7199ZM23.9576 86.1144C24.1979 86.3509 24.4967 86.5199 24.8238 86.6042C25.1394 86.683 25.4707 86.6731 25.781 86.5757C26.1125 86.47 26.4109 86.2807 26.6472 86.0262C26.8948 85.7776 27.074 85.4697 27.1675 85.1321C27.2527 84.8127 27.2464 84.476 27.1493 84.1601C27.0488 83.8338 26.865 83.5391 26.616 83.3048L25.6796 82.421L22.9951 85.1994L23.9576 86.1144ZM27.3027 82.6102C27.7022 82.9809 28.0026 83.445 28.1767 83.9605C28.3374 84.4434 28.3591 84.9615 28.2392 85.456C28.1103 85.9678 27.8462 86.4359 27.4744 86.8116C27.1136 87.1963 26.6539 87.4751 26.1452 87.6176C25.6512 87.7576 25.1279 87.7576 24.6339 87.6176C24.1019 87.4612 23.6174 87.1752 23.224 86.7857L21.5046 85.1372L25.5547 80.9436L27.3027 82.6102ZM19.9725 79.6477C19.8117 79.763 19.6758 79.9094 19.573 80.0782C19.4702 80.2469 19.4026 80.4346 19.3742 80.63C19.3584 80.8215 19.3819 81.0143 19.4431 81.1965C19.5044 81.3787 19.6022 81.5467 19.7306 81.6901C19.8416 81.8449 19.9839 81.9749 20.1483 82.0718C20.3127 82.1686 20.4956 82.2302 20.6852 82.2525C20.8827 82.2623 21.0801 82.2333 21.2662 82.167C21.4523 82.1007 21.6235 81.9986 21.77 81.8663L24.4414 79.7177L25.1411 80.5859L22.4645 82.7346C22.1138 83.0311 21.693 83.2336 21.2419 83.3229C20.8292 83.3984 20.4034 83.3487 20.0193 83.1804C19.5937 82.9869 19.2221 82.6923 18.9372 82.3225C18.6324 81.9631 18.42 81.5352 18.3181 81.0758C18.2295 80.6645 18.2685 80.236 18.43 79.8473C18.6137 79.4262 18.9019 79.0587 19.2676 78.7794L21.9442 76.6308L22.644 77.499L19.9725 79.6477ZM19.3768 72.5279L21.9781 76.5012L21.1483 77.0429L20.152 75.5266L16.0941 78.1677L15.4802 77.2373L19.5381 74.5962L18.5444 73.0799L19.3768 72.5279ZM17.8915 72.7015C17.9331 72.365 17.9331 72.0246 17.8915 71.6881C17.8644 71.4081 17.7952 71.1337 17.686 70.8743C17.6064 70.6668 17.4682 70.4868 17.2881 70.3559C17.2195 70.3074 17.1392 70.2783 17.0554 70.2714C16.9716 70.2646 16.8876 70.2803 16.812 70.317C16.743 70.3461 16.6806 70.3889 16.6287 70.4428C16.5769 70.4968 16.5366 70.5607 16.5103 70.6306C16.4551 70.7843 16.4295 70.947 16.4349 71.1101C16.4349 71.2889 16.4635 71.5248 16.5025 71.8151C16.5554 72.1582 16.5833 72.5047 16.5857 72.8518C16.5833 73.1306 16.5128 73.4046 16.3802 73.6501C16.2199 73.9289 15.9696 74.1454 15.6701 74.2644C15.37 74.4075 15.0312 74.4494 14.7051 74.3836C14.3733 74.3133 14.0685 74.1506 13.8258 73.9145C13.5427 73.6396 13.3165 73.312 13.1599 72.9503C12.9721 72.5351 12.8636 72.0886 12.84 71.6337C12.8133 71.1918 12.8653 70.7487 12.9935 70.3248L14.0522 70.3585C13.9248 70.7339 13.8649 71.1287 13.8753 71.5248C13.875 71.881 13.9467 72.2335 14.086 72.5616C14.1801 72.8002 14.3419 73.0064 14.5516 73.1551C14.6246 73.2013 14.7068 73.231 14.7926 73.242C14.8784 73.2531 14.9655 73.2452 15.0479 73.219C15.1303 73.1928 15.2059 73.1489 15.2693 73.0904C15.3328 73.0318 15.3826 72.9602 15.4152 72.8804C15.4714 72.7252 15.4953 72.5603 15.4854 72.3957C15.4854 72.2168 15.4516 71.9784 15.4074 71.6829C15.357 71.3447 15.3283 71.0036 15.3215 70.6617C15.3214 70.3905 15.3884 70.1234 15.5166 69.8842C15.6711 69.6068 15.9176 69.3915 16.2138 69.2751C16.5009 69.1383 16.8245 69.0965 17.1372 69.1559C17.4579 69.2258 17.7526 69.3838 17.9878 69.612C18.2709 69.8834 18.4964 70.2086 18.6511 70.5684C18.9544 71.2489 19.0616 72.0001 18.9606 72.7378L17.8915 72.7015Z" fill="#221F1F"/>
<path id="Vector_7" d="M57.6615 16.8082L57.1777 15.5511L54.3163 15.4734L53.7649 16.689L52.6047 16.6553L55.3282 10.9091L56.4884 10.9428L58.8607 16.8471L57.6615 16.8082ZM54.7533 14.5377L56.8057 14.5947L55.8563 12.1247L54.7533 14.5377Z" fill="#221F1F"/>
<path id="Vector_8" d="M44.7985 15.9321C44.8663 15.9716 44.9254 16.0244 44.9724 16.0872C45.0193 16.15 45.0531 16.2215 45.0716 16.2976C45.1199 16.4514 45.1059 16.6179 45.0326 16.7615C44.9971 16.8296 44.9474 16.8893 44.8868 16.9367C44.8262 16.984 44.7562 17.018 44.6815 17.0362C44.6087 17.0588 44.5318 17.0652 44.4563 17.0549C44.3808 17.0446 44.3085 17.0179 44.2444 16.9766C44.1767 16.9358 44.1176 16.8821 44.0708 16.8185C44.0239 16.7549 43.9901 16.6827 43.9713 16.606C43.9472 16.5315 43.9385 16.4529 43.9456 16.375C43.9528 16.297 43.9757 16.2213 44.0129 16.1524C44.0493 16.0881 44.0986 16.0319 44.1576 15.9873C44.2167 15.9427 44.2843 15.9107 44.3563 15.8932C44.4287 15.8688 44.5054 15.8597 44.5815 15.8664C44.6576 15.8731 44.7315 15.8955 44.7985 15.9321V15.9321Z" fill="#221F1F"/>
<path id="Vector_9" d="M65.1868 16.2069C65.2606 16.3455 65.2764 16.5076 65.231 16.6579C65.1924 16.8144 65.0945 16.95 64.9579 17.0363C64.8917 17.0759 64.8179 17.1012 64.7413 17.1105C64.6647 17.1199 64.5869 17.1132 64.5131 17.0907C64.4392 17.0727 64.3701 17.0388 64.3108 16.9913C64.2515 16.9438 64.2033 16.884 64.1697 16.816C64.096 16.6735 64.081 16.5079 64.1281 16.3546C64.1628 16.2033 64.2564 16.0718 64.3882 15.9892C64.4529 15.9506 64.525 15.926 64.5999 15.9171C64.6748 15.9081 64.7507 15.915 64.8226 15.9373C64.8992 15.9536 64.9713 15.9861 65.0341 16.0326C65.097 16.0792 65.149 16.1386 65.1868 16.2069V16.2069Z" fill="#221F1F"/>
<path id="Vector_10" d="M77.3553 17.6428C77.1897 17.3972 76.9711 17.1917 76.7154 17.0414C76.4178 16.8622 76.0772 16.7664 75.7295 16.7641C75.3875 16.7596 75.0508 16.8493 74.7567 17.0233C74.4545 17.1969 74.2041 17.4473 74.0309 17.749C73.8525 18.0491 73.7557 18.3904 73.75 18.7391C73.7476 19.0805 73.8375 19.4162 74.0101 19.7111C74.1817 20.0139 74.4325 20.2647 74.7359 20.4368C74.9871 20.5787 75.2653 20.667 75.5526 20.696C75.8541 20.7303 76.1593 20.7083 76.4527 20.6312L76.653 21.5953C76.2297 21.7105 75.7882 21.7439 75.3524 21.6938C74.9288 21.6515 74.5192 21.5198 74.1506 21.3076C73.6803 21.0412 73.2898 20.6547 73.0191 20.188C72.752 19.7319 72.6128 19.2128 72.616 18.6848C72.6192 18.1568 72.7647 17.6394 73.0373 17.1866C73.3008 16.7234 73.6879 16.3421 74.1558 16.0851C74.6149 15.8306 75.1341 15.7035 75.6593 15.717C76.2099 15.7283 76.7479 15.8829 77.22 16.1654C77.5832 16.3788 77.9006 16.6615 78.1539 16.9974C78.4074 17.3273 78.5898 17.7059 78.6897 18.1093L77.7169 18.4851C77.6565 18.1823 77.5334 17.8954 77.3553 17.6428V17.6428Z" fill="#221F1F"/>
<path id="Vector_11" d="M34.4483 15.5848C34.1522 15.6072 33.865 15.6958 33.6081 15.844C33.3043 16.0138 33.0519 16.2618 32.8771 16.562C32.7043 16.8558 32.6145 17.1907 32.617 17.5313C32.6233 17.8787 32.7183 18.2188 32.8931 18.5194C33.0678 18.8201 33.3166 19.0714 33.6159 19.2497C33.9134 19.4246 34.2525 19.5168 34.5978 19.5168C34.9432 19.5168 35.2823 19.4246 35.5798 19.2497C35.8292 19.1039 36.0453 18.908 36.2145 18.6743C36.3953 18.4302 36.5278 18.154 36.6047 17.8605L37.5437 18.1663C37.4344 18.5872 37.2465 18.9838 36.9897 19.3352C36.7426 19.6815 36.4242 19.9714 36.0558 20.1854C35.5912 20.4603 35.0615 20.607 34.5211 20.6104C33.996 20.6158 33.4792 20.4797 33.0254 20.2165C32.5614 19.9511 32.1778 19.5661 31.9147 19.102C31.6447 18.648 31.5035 18.1294 31.5063 17.6017C31.509 17.074 31.6556 16.557 31.9303 16.1058C32.2124 15.6391 32.6113 15.2533 33.0878 14.9861C33.4523 14.7755 33.8558 14.6406 34.274 14.5896C34.6872 14.5317 35.1079 14.56 35.5096 14.6725L35.3561 15.7092C35.0652 15.6064 34.7562 15.5641 34.4483 15.5848V15.5848Z" fill="#221F1F"/>
<path id="Vector_12" fill-rule="evenodd" clip-rule="evenodd" d="M71.0682 75.0057H76.4345L74.3119 77.8127L76.4345 80.4305H71.0682V75.0057Z" fill="#FFD53A"/>
<path id="Vector_13" d="M76.3044 75.0705H71.1332V80.3657H76.2992L74.2599 77.8516L74.2312 77.8127L74.2599 77.7738L76.3044 75.0705ZM71.0682 74.9409H76.5619L76.4839 75.0446L74.4029 77.8101L76.4839 80.402L76.5671 80.5056H71.0031V74.9409H71.0682Z" fill="#231F20"/>
<path id="Vector_14" fill-rule="evenodd" clip-rule="evenodd" d="M37.2706 75.0057H31.9043L34.0269 77.8127L31.9043 80.4305H37.2706V75.0057Z" fill="#FFD53A"/>
<path id="Vector_15" d="M31.9043 74.9409H37.333V80.4927H31.769L31.8549 80.389L33.9358 77.7972L31.8549 75.0317L31.7768 74.928L31.9043 74.9409ZM37.2056 75.0705H32.0317L34.0659 77.7738L34.0971 77.8127L34.0659 77.8516L32.0265 80.3657H37.1951L37.2056 75.0705Z" fill="#231F20"/>
<path id="Vector_16" fill-rule="evenodd" clip-rule="evenodd" d="M96.3858 47.1873L96.9659 49.0664L98.8491 49.0638L97.3248 50.2198L97.9101 52.0963L96.3858 50.9326L94.8641 52.0963L95.4493 50.2198L93.925 49.0638L95.8083 49.0664L96.3858 47.1873Z" fill="#221F1F"/>
<path id="Vector_17" fill-rule="evenodd" clip-rule="evenodd" d="M11.7839 47.1873L12.364 49.0664L14.2472 49.0638L12.7203 50.2198L13.3056 52.0963L11.7839 50.9326L10.2622 52.0963L10.8475 50.2198L9.32054 49.0638L11.2064 49.0664L11.7839 47.1873Z" fill="#221F1F"/>
<path id="Vector_18" d="M90.2521 18.1067C85.5261 13.3858 79.9104 9.64189 73.7278 7.09011C67.5451 4.53833 60.9174 3.22896 54.2253 3.23724C26.0906 3.23724 3.28053 25.9652 3.28053 54.0013C3.28019 60.6671 4.59751 67.2676 7.15728 73.4261C9.71704 79.5846 13.4691 85.1804 18.1993 89.894C22.9295 94.6077 28.5451 98.3468 34.7256 100.898C40.906 103.449 47.5303 104.762 54.2201 104.763C82.3574 104.763 105.167 82.0348 105.167 54.0013C105.176 47.3343 103.863 40.7313 101.304 34.5714C98.744 28.4115 94.9882 22.8162 90.2521 18.1067V18.1067ZM54.2201 3.00916C60.9408 3.00881 67.5957 4.32753 73.8048 6.89001C80.014 9.45248 85.6557 13.2085 90.408 17.9437C95.1602 22.6788 98.9298 28.3002 101.502 34.4871C104.073 40.6739 105.397 47.3048 105.396 54.0013C105.396 82.1618 82.4849 104.993 54.2201 104.993C40.6477 104.992 27.6316 99.6193 18.0345 90.0567C8.43742 80.4941 3.0452 67.5248 3.04382 54.0013C3.04382 25.8382 25.9579 3.00916 54.2201 3.00916Z" fill="#221F1F"/>
<path id="Vector_19" d="M79.1033 29.2076C73.3468 23.4715 65.7722 19.9016 57.6702 19.1063C49.5683 18.3109 41.4402 20.3393 34.6709 24.8459C27.9016 29.3524 22.9099 36.0582 20.5464 43.8208C18.1829 51.5833 18.5938 59.9222 21.7091 67.4168C24.8243 74.9113 30.4512 81.0977 37.631 84.9218C44.8107 88.746 53.0991 89.9713 61.0839 88.3891C69.0688 86.8068 76.256 82.5148 81.4209 76.2444C86.5859 69.974 89.409 62.1132 89.4093 54.0013C89.4155 49.3959 88.5081 44.8346 86.7395 40.5797C84.9708 36.3247 82.3757 32.46 79.1033 29.2076V29.2076ZM54.2201 18.7806C61.2105 18.7811 68.0438 20.847 73.8559 24.717C79.668 28.587 84.1979 34.0873 86.8728 40.5225C89.5477 46.9577 90.2474 54.0386 88.8835 60.87C87.5196 67.7015 84.1534 73.9765 79.2104 78.9017C74.2674 83.8269 67.9697 87.181 61.1137 88.54C54.2576 89.899 47.151 89.2018 40.6926 86.5365C34.2342 83.8712 28.714 79.3577 24.83 73.5665C20.9461 67.7753 18.8727 60.9666 18.8722 54.0013C18.8574 49.3719 19.7616 44.7853 21.5328 40.5055C23.304 36.2257 25.9071 32.3371 29.1924 29.0637C32.4777 25.7902 36.3803 23.1964 40.6756 21.4316C44.9709 19.6668 49.574 18.7659 54.2201 18.7806V18.7806Z" fill="#221F1F"/>
<path id="Vector_20" d="M63.3608 50.2198C63.3941 50.2398 63.4208 50.2692 63.4374 50.3042C63.4541 50.3392 63.46 50.3784 63.4544 50.4168C63.4544 50.5386 63.4544 50.6604 63.4544 50.79H63.8368C63.9825 50.79 64.0293 50.8366 64.0293 50.9792C64.0293 51.2695 64.0293 51.5598 64.0293 51.8475V51.9278H63.7431V51.0777H63.4596V57.4381C63.4596 57.604 63.4206 57.6429 63.2541 57.6429H58.1505C58.1505 57.7491 58.1505 57.8476 58.1505 57.9409C58.1525 57.9769 58.1687 58.0107 58.1954 58.0349C58.2222 58.0591 58.2575 58.0719 58.2936 58.0705C58.3724 58.0757 58.4515 58.0757 58.5303 58.0705C58.5417 58.0694 58.5526 58.0652 58.5618 58.0584C58.571 58.0515 58.5781 58.0423 58.5823 58.0316C58.5934 57.9987 58.6154 57.9704 58.6447 57.9516C58.674 57.9327 58.7089 57.9244 58.7436 57.928H59.8439C59.9428 57.928 59.9818 57.9591 60.0182 58.0679H63.3087V57.7984H63.5871C63.5871 57.9513 63.5871 58.1068 63.5871 58.2597C63.5844 58.2879 63.5711 58.314 63.5499 58.3328C63.5286 58.3516 63.501 58.3616 63.4726 58.3608C63.4414 58.3634 63.4101 58.3634 63.379 58.3608H60.0208V58.5034H63.7379V52.8013H64.0267V58.5759C64.0267 58.7314 63.9825 58.7755 63.8264 58.7755H60.013V59.1695C60.013 59.325 59.9168 59.3846 59.7763 59.3172C59.6358 59.2498 59.4954 59.172 59.3523 59.1073C59.3161 59.0944 59.2766 59.0944 59.2404 59.1073C59.0974 59.1746 58.9543 59.2498 58.8112 59.3198C58.6682 59.3898 58.5823 59.3198 58.5797 59.1772V58.7755H58.4809C58.3255 58.7795 58.17 58.7743 58.0153 58.7599C57.8493 58.7303 57.6996 58.6423 57.5931 58.512C57.4867 58.3817 57.4307 58.2177 57.4352 58.0498C57.4352 57.8087 57.4352 57.5677 57.4352 57.3267V50.9844C57.4257 50.8336 57.4641 50.6836 57.5448 50.5557C57.6256 50.4278 57.7447 50.3284 57.8852 50.2716C57.9423 50.2513 58.0005 50.234 58.0595 50.2198H63.3608ZM63.1605 50.5049H63.0746C61.4515 50.5049 59.8257 50.5049 58.2 50.5049C58.136 50.5019 58.0721 50.5123 58.0123 50.5354C57.9526 50.5584 57.8984 50.5936 57.8531 50.6388C57.8078 50.6839 57.7725 50.7379 57.7493 50.7974C57.7262 50.857 57.7158 50.9206 57.7187 50.9844C57.7187 53.0786 57.7187 55.1745 57.7187 57.2722V57.3578H63.1579L63.1605 50.5049ZM59.7217 58.2208H58.8711V58.9803C58.9647 58.9336 59.0557 58.8973 59.1312 58.8455C59.1767 58.8106 59.2325 58.7917 59.2899 58.7917C59.3473 58.7917 59.403 58.8106 59.4485 58.8455C59.5318 58.8973 59.6228 58.9336 59.7087 58.9803L59.7217 58.2208ZM58.5771 58.3556H58.3326C58.2695 58.3612 58.2059 58.3529 58.1464 58.3313C58.0868 58.3097 58.0328 58.2752 57.9881 58.2305C57.9434 58.1857 57.9092 58.1317 57.8878 58.0722C57.8664 58.0128 57.8584 57.9494 57.8644 57.8865V57.648H57.7369C57.7278 57.8129 57.7278 57.9782 57.7369 58.1431C57.7504 58.2436 57.8005 58.3357 57.8778 58.4016C57.955 58.4676 58.054 58.5029 58.1557 58.5008C58.2754 58.5008 58.395 58.5008 58.5147 58.5008H58.5823L58.5771 58.3556Z" fill="#221F1F"/>
<path id="Vector_21" fill-rule="evenodd" clip-rule="evenodd" d="M46.635 58.1224C45.9638 58.3487 45.6318 58.5682 45.6387 58.7807C45.6387 59.0166 45.93 59.2058 46.4867 59.3535C47.7896 59.6392 49.1446 59.5839 50.4197 59.1928C50.9582 59.001 51.2235 58.7833 51.2131 58.5449C51.2027 58.3064 50.9166 58.1613 50.3443 58.0265C49.7083 57.882 49.0551 57.8271 48.4038 57.8632C48.2919 57.8632 48.1437 57.8762 47.9876 57.8917C48.0092 57.9491 48.0223 58.0094 48.0266 58.0705C48.0331 58.1645 48.0206 58.2589 47.9897 58.3479C47.9589 58.437 47.9104 58.5189 47.8471 58.5889C47.787 58.6577 47.7131 58.7132 47.6303 58.752C47.5474 58.7909 47.4574 58.8121 47.3659 58.8144C47.2713 58.8221 47.1761 58.8099 47.0865 58.7787C46.9969 58.7474 46.9148 58.6978 46.8457 58.633C46.7773 58.5668 46.7232 58.4874 46.687 58.3995C46.6507 58.3117 46.633 58.2173 46.635 58.1224ZM45.9378 58.1898C47.5148 57.567 49.2572 57.4957 50.8801 57.9876C50.6563 57.7269 50.4578 57.4458 50.2871 57.1478C50.1868 56.9497 50.1318 56.732 50.1258 56.5103L50.0998 56.1552C50.0893 55.6964 49.9555 55.2489 49.7122 54.8592C49.4157 54.3944 48.931 54.1759 48.2581 54.2035C47.5844 54.232 47.1188 54.4912 46.8587 54.9811C46.648 55.3933 46.5519 55.8542 46.5803 56.3159V56.6709C46.5905 56.8916 46.5523 57.1118 46.4685 57.3163C46.3182 57.6227 46.1406 57.915 45.9378 58.1898V58.1898ZM47.933 54.0635C47.933 53.8432 48.024 53.7292 48.2321 53.7214C48.4402 53.7136 48.5443 53.8173 48.5547 54.0402C48.8013 54.0466 49.0434 54.1084 49.2627 54.2211C49.4821 54.3337 49.6731 54.4943 49.8214 54.6908C49.9657 54.8942 50.0747 55.1202 50.144 55.3595C50.2321 55.6101 50.2847 55.8719 50.3001 56.137V56.4144C50.3046 56.6471 50.3596 56.8761 50.4613 57.0856C50.6278 57.3732 50.823 57.6433 51.044 57.8917L51.2001 58.0783C51.3104 58.1947 51.379 58.3441 51.3952 58.5034C51.3952 58.8196 51.1351 59.0917 50.5862 59.3198C49.2062 59.7853 47.7211 59.8465 46.3072 59.4961C45.7401 59.3146 45.4497 59.0658 45.4358 58.7496C45.4397 58.5891 45.4964 58.4343 45.5971 58.309L45.7375 58.1094C45.9403 57.8449 46.1146 57.56 46.2578 57.2593C46.3412 57.0422 46.3766 56.8097 46.3618 56.5776V56.2977C46.3566 56.0312 46.3881 55.7652 46.4555 55.5072C46.5047 55.2642 46.5925 55.0306 46.7156 54.8152C46.8488 54.6068 47.0274 54.431 47.2381 54.3008C47.4489 54.1707 47.6864 54.0896 47.933 54.0635V54.0635Z" fill="black"/>
<path id="Vector_22" d="M46.635 58.1224C45.9638 58.3487 45.6318 58.5682 45.6387 58.7807C45.6387 59.0166 45.93 59.2058 46.4867 59.3535C47.7896 59.6392 49.1446 59.5839 50.4197 59.1928C50.9582 59.001 51.2235 58.7833 51.2131 58.5449C51.2027 58.3064 50.9166 58.1613 50.3443 58.0265C49.7083 57.882 49.0551 57.8271 48.4038 57.8632C48.2919 57.8632 48.1437 57.8762 47.9876 57.8917C48.0092 57.9491 48.0223 58.0094 48.0266 58.0705C48.0331 58.1645 48.0206 58.2589 47.9897 58.3479C47.9589 58.437 47.9104 58.5189 47.8471 58.5889C47.787 58.6577 47.7131 58.7132 47.6303 58.752C47.5474 58.7909 47.4574 58.8121 47.3659 58.8144C47.2713 58.8221 47.1761 58.8099 47.0865 58.7787C46.9969 58.7474 46.9148 58.6978 46.8457 58.633C46.7773 58.5668 46.7232 58.4874 46.687 58.3995C46.6507 58.3117 46.633 58.2173 46.635 58.1224ZM45.9378 58.1898C47.5148 57.567 49.2572 57.4957 50.8801 57.9876C50.6563 57.7269 50.4578 57.4458 50.2871 57.1478C50.1868 56.9497 50.1318 56.732 50.1258 56.5103L50.0998 56.1552C50.0893 55.6964 49.9555 55.2489 49.7122 54.8592C49.4157 54.3944 48.931 54.1759 48.2581 54.2035C47.5844 54.232 47.1188 54.4912 46.8587 54.9811C46.648 55.3933 46.5519 55.8542 46.5803 56.3159V56.6709C46.5905 56.8916 46.5523 57.1118 46.4685 57.3163C46.3182 57.6227 46.1406 57.915 45.9378 58.1898V58.1898ZM47.933 54.0635C47.933 53.8432 48.024 53.7292 48.2321 53.7214C48.4402 53.7136 48.5443 53.8173 48.5547 54.0402C48.8013 54.0466 49.0434 54.1084 49.2627 54.2211C49.4821 54.3337 49.6731 54.4943 49.8214 54.6908C49.9657 54.8942 50.0747 55.1202 50.144 55.3595C50.2321 55.6101 50.2847 55.8719 50.3001 56.137V56.4144C50.3046 56.6471 50.3596 56.8761 50.4613 57.0856C50.6278 57.3732 50.823 57.6433 51.044 57.8917L51.2001 58.0783C51.3104 58.1947 51.379 58.3441 51.3952 58.5034C51.3952 58.8196 51.1351 59.0917 50.5862 59.3198C49.2062 59.7853 47.7211 59.8465 46.3072 59.4961C45.7401 59.3146 45.4497 59.0658 45.4358 58.7496C45.4397 58.5891 45.4964 58.4343 45.5971 58.309L45.7375 58.1094C45.9403 57.8449 46.1146 57.56 46.2578 57.2593C46.3412 57.0422 46.3766 56.8097 46.3618 56.5776V56.2977C46.3566 56.0312 46.3881 55.7652 46.4555 55.5072C46.5047 55.2642 46.5925 55.0306 46.7156 54.8152C46.8488 54.6068 47.0274 54.431 47.2381 54.3008C47.4489 54.1707 47.6864 54.0896 47.933 54.0635V54.0635Z" fill="black" stroke="#231F20" stroke-width="0.24" stroke-miterlimit="2.61"/>
<path id="Vector_23" fill-rule="evenodd" clip-rule="evenodd" d="M48.2217 53.9987L48.461 49.9036C48.3534 49.878 48.2409 49.8803 48.1344 49.9103C48.0279 49.9403 47.9309 49.997 47.8527 50.075C47.7744 50.1529 47.7175 50.2496 47.6874 50.3557C47.6573 50.4618 47.655 50.5738 47.6806 50.6811L48.2217 53.9987Z" fill="black"/>
<path id="Vector_24" d="M48.2217 53.9987L48.461 49.9036C48.3534 49.878 48.2409 49.8803 48.1344 49.9103C48.0279 49.9403 47.9309 49.997 47.8527 50.075C47.7744 50.1529 47.7175 50.2496 47.6874 50.3557C47.6573 50.4618 47.655 50.5738 47.6806 50.6811L48.2217 53.9987Z" fill="black" stroke="#231F20" stroke-width="0.55" stroke-miterlimit="2.61"/>
<path id="Vector_25" fill-rule="evenodd" clip-rule="evenodd" d="M48.2633 53.8821L48.4766 49.8517C48.5842 49.8402 48.6929 49.8559 48.7928 49.8974C48.8926 49.9389 48.9803 50.0048 49.0478 50.0891C49.1152 50.1733 49.1602 50.2732 49.1786 50.3794C49.197 50.4856 49.1882 50.5948 49.1529 50.6967L48.2633 53.8821Z" fill="black"/>
<path id="Vector_26" d="M48.2633 53.8821L48.4766 49.8517C48.5842 49.8402 48.6929 49.8559 48.7928 49.8974C48.8926 49.9389 48.9803 50.0048 49.0478 50.0891C49.1152 50.1733 49.1602 50.2732 49.1786 50.3794C49.197 50.4856 49.1882 50.5948 49.1529 50.6967L48.2633 53.8821Z" fill="black" stroke="#231F20" stroke-width="0.55" stroke-miterlimit="2.61"/>
<path id="Vector_27" d="M52.9897 40.3785H55.2528V46.7545H62.9264V49.0016H55.2528V82.5584H52.9897V49.0016H45.3161V46.7545H52.9897V40.3785Z" fill="#EC1C24"/>
<path id="Vector_28" d="M36.1469 74.3863L35.7801 74.0441V79.487C36.5292 80.2413 51.6475 95.0148 72.6601 79.5V74.1037C52.7374 89.8622 39.0316 77.087 36.1469 74.3863ZM35.6682 73.7253C35.7593 73.7253 35.957 73.9094 36.2951 74.2256C39.1695 76.9029 52.8336 89.6445 72.7121 73.7849L72.8916 73.6424V79.6037L72.8474 79.6374C51.1559 95.7069 35.65 79.6374 35.6006 79.6037L35.5668 79.5259V73.7331L35.6682 73.7253Z" fill="#231F20"/>
<path id="Vector_29" fill-rule="evenodd" clip-rule="evenodd" d="M35.6656 73.8419C36.1625 73.8419 50.6304 91.5495 72.7694 73.8782V79.5699C51.1559 95.5772 35.6656 79.5466 35.6656 79.5466V73.8419Z" fill="#FFF100"/>
<path id="Vector_30" d="M65.4417 80.2101L65.6758 80.1013L65.8345 81.4594L65.6004 81.5708L64.9085 80.7933L65.0568 81.8119L64.8252 81.9207L63.8732 80.9358L64.1177 80.8218L64.833 81.6201L64.6692 80.56L64.8903 80.4563L65.6108 81.2598L65.4417 80.2101ZM63.3035 81.4438C63.2338 81.4775 63.1738 81.5283 63.1293 81.5916C63.0851 81.6544 63.0582 81.7277 63.0512 81.8041C63.0457 81.8824 63.06 81.9608 63.0928 82.0322C63.127 82.103 63.179 82.1637 63.2437 82.2084C63.3078 82.252 63.3822 82.278 63.4596 82.2836C63.536 82.2907 63.6129 82.2774 63.6823 82.245C63.7518 82.2127 63.8114 82.1625 63.855 82.0996C63.8989 82.0355 63.9249 81.9609 63.9304 81.8835C63.9359 81.8061 63.9206 81.7286 63.8862 81.659C63.8547 81.5866 63.8033 81.5246 63.7379 81.4801C63.676 81.4363 63.6031 81.4102 63.5272 81.405C63.4505 81.3971 63.3731 81.4106 63.3035 81.4438V81.4438ZM63.2073 81.2443C63.3172 81.1909 63.439 81.1668 63.5611 81.1743C63.6794 81.1784 63.794 81.2161 63.8914 81.2831C63.9893 81.3472 64.0676 81.4369 64.1177 81.5423C64.169 81.6496 64.1906 81.7687 64.1801 81.887C64.1694 82.004 64.1271 82.116 64.0579 82.211C63.9862 82.3112 63.8893 82.3907 63.777 82.4417C63.6663 82.4955 63.5433 82.5187 63.4206 82.5091C63.3023 82.5029 63.188 82.4643 63.0902 82.3976C62.9922 82.3337 62.9139 82.244 62.8639 82.1385C62.8128 82.032 62.7913 81.9139 62.8015 81.7963C62.8116 81.6788 62.8549 81.5664 62.9264 81.4724C62.9967 81.3747 63.0907 81.2962 63.1995 81.2443H63.2073ZM61.8 81.8223L62.0315 81.7289L62.4347 82.7242L62.955 82.5143L63.0408 82.7216L62.2891 83.0249L61.8 81.8223ZM60.9208 82.1411L61.1575 82.0607L61.5061 83.0741L62.0263 82.8953L62.0992 83.1078L61.3318 83.367L60.9208 82.1411ZM60.1223 82.6257C60.0482 82.6493 59.9823 82.6933 59.9324 82.7527C59.8804 82.8095 59.8453 82.8794 59.8309 82.9549C59.8101 83.0695 59.8348 83.1876 59.8999 83.2844C59.9649 83.3811 60.0652 83.4489 60.1795 83.4733C60.2558 83.4889 60.3349 83.4835 60.4084 83.4577C60.4816 83.4338 60.5465 83.3898 60.5957 83.3307C60.6453 83.2728 60.6793 83.2032 60.6945 83.1285C60.7092 83.0514 60.7029 82.9718 60.6763 82.8979C60.6524 82.8227 60.6083 82.7555 60.5488 82.7035C60.4907 82.654 60.4209 82.6201 60.346 82.605C60.2709 82.5911 60.1934 82.5982 60.1223 82.6257V82.6257ZM60.0468 82.4158C60.1627 82.3749 60.2872 82.3641 60.4084 82.3847C60.5244 82.4044 60.633 82.4545 60.7231 82.5298C60.8123 82.6081 60.8795 82.7082 60.9182 82.8201C60.9577 82.9318 60.9659 83.052 60.9421 83.1679C60.9183 83.2839 60.8632 83.3912 60.783 83.4784C60.6997 83.5684 60.5951 83.6362 60.4788 83.6756C60.3625 83.7149 60.2381 83.7247 60.117 83.7039C59.9983 83.6857 59.8869 83.6352 59.7951 83.5579C59.7033 83.4806 59.6347 83.3796 59.5968 83.2659C59.5581 83.1543 59.55 83.0344 59.5734 82.9186C59.5983 82.8032 59.654 82.6967 59.7347 82.6102C59.8205 82.5213 59.9281 82.4561 60.0468 82.421V82.4158ZM58.5173 82.8279L59.3861 82.5998L59.4381 82.8123L58.8138 82.9756L58.9023 83.3126L59.4719 83.1648L59.5266 83.3748L58.9569 83.5225L59.0896 84.0201L58.8477 84.0824L58.5173 82.8279ZM56.9566 83.1519L57.893 82.9653L57.9346 83.1778L57.2453 83.3178L57.3077 83.6314L57.9268 83.507L57.971 83.7195L57.3494 83.8439L57.4144 84.1627L58.1271 84.0227L58.1713 84.2353L57.2141 84.4245L56.9566 83.1519ZM56.621 83.1778L56.8811 83.1441L56.621 84.4867L56.3609 84.523L55.9161 83.5873L55.7496 84.6033L55.4895 84.637L54.8782 83.4111L55.1383 83.3748L55.5805 84.3519L55.7444 83.2944L55.9863 83.2607L56.4311 84.2404L56.621 83.1778ZM54.397 84.453C54.43 84.4526 54.4622 84.4636 54.488 84.4841C54.5142 84.5073 54.5301 84.5399 54.5322 84.5748C54.5338 84.5912 54.5338 84.6077 54.5322 84.624C54.5322 84.6396 54.5192 84.6577 54.5088 84.6811L54.41 84.9117H54.2877L54.3502 84.6862C54.3341 84.6759 54.3204 84.6623 54.31 84.6464C54.2995 84.6305 54.2924 84.6126 54.2892 84.5939C54.2861 84.5751 54.2868 84.5559 54.2915 84.5374C54.2962 84.519 54.3046 84.5017 54.3163 84.4867C54.3362 84.4678 54.3618 84.4559 54.3892 84.453H54.397ZM54.0146 83.748C53.95 83.709 53.881 83.6777 53.8091 83.6547C53.7494 83.635 53.6872 83.6237 53.6244 83.621C53.5744 83.6203 53.525 83.6328 53.4814 83.6573C53.4653 83.6661 53.4521 83.6794 53.4433 83.6955C53.4346 83.7115 53.4306 83.7298 53.4319 83.748C53.4311 83.7648 53.4339 83.7817 53.4401 83.7973C53.4464 83.813 53.4561 83.8271 53.4683 83.8387C53.4941 83.8648 53.5252 83.8851 53.5594 83.8983C53.6077 83.9179 53.6572 83.9343 53.7077 83.9476C53.7822 83.9685 53.8552 83.9945 53.9262 84.0253C53.982 84.0519 54.0309 84.0909 54.0692 84.1394C54.1124 84.1967 54.1336 84.2674 54.1291 84.3389C54.1319 84.413 54.1099 84.486 54.0666 84.5463C54.0221 84.6074 53.9606 84.6542 53.8897 84.6811C53.8072 84.7142 53.7186 84.7301 53.6296 84.7277C53.5283 84.7277 53.4278 84.7093 53.3331 84.6733C53.2387 84.6378 53.1508 84.587 53.073 84.523L53.177 84.3104C53.2424 84.3709 53.3182 84.4192 53.4007 84.453C53.4728 84.4853 53.5506 84.5029 53.6296 84.5048C53.6863 84.5071 53.7424 84.4927 53.7909 84.4634C53.8099 84.4524 53.8256 84.4365 53.8361 84.4173C53.8467 84.3981 53.8517 84.3764 53.8507 84.3545C53.8511 84.3377 53.8481 84.321 53.8418 84.3054C53.8356 84.2898 53.8262 84.2757 53.8143 84.2638C53.7883 84.2387 53.7573 84.2192 53.7233 84.2068C53.6734 84.1865 53.6221 84.1701 53.5698 84.1575C53.4964 84.1366 53.4243 84.1115 53.3539 84.0824C53.2971 84.0573 53.2478 84.018 53.2108 83.9683C53.168 83.9118 53.1468 83.842 53.151 83.7713C53.148 83.7012 53.1681 83.632 53.2082 83.5743C53.2523 83.5155 53.3116 83.4698 53.3799 83.4422C53.4628 83.4102 53.5511 83.3944 53.64 83.3955C53.728 83.3952 53.8156 83.4074 53.9001 83.4318C53.9777 83.4544 54.0513 83.4884 54.1186 83.5329L54.0146 83.748ZM52.3186 84.4711C52.3934 84.4745 52.4678 84.4584 52.5345 84.4245C52.5988 84.3911 52.6527 84.3409 52.6906 84.2793C52.7306 84.2127 52.7522 84.1367 52.753 84.059C52.7565 83.982 52.7404 83.9053 52.7062 83.8361C52.6743 83.7696 52.6237 83.7138 52.5605 83.6754C52.495 83.6365 52.4208 83.6143 52.3446 83.6106H52.0559L52.0195 84.4685L52.3186 84.4711ZM52.3576 83.3929C52.4792 83.3957 52.5981 83.4287 52.7036 83.4888C52.8011 83.5462 52.8804 83.6297 52.9325 83.7299C52.9882 83.8341 53.0143 83.9515 53.0079 84.0694C53.0049 84.1863 52.9698 84.3001 52.9065 84.3986C52.8423 84.4949 52.7522 84.5713 52.6464 84.6189C52.5344 84.6717 52.411 84.6958 52.2874 84.6888L51.7671 84.6655L51.8218 83.3696L52.3576 83.3929ZM50.7137 84.0642L51.1663 84.1186L51.0076 83.551L50.7137 84.0642ZM51.3119 84.6266L51.2287 84.3415L50.5992 84.2664L50.4509 84.5256L50.1908 84.4945L50.9139 83.2763L51.1741 83.3074L51.5773 84.6629L51.3119 84.6266ZM49.3532 83.0352L50.2949 83.1882L50.2584 83.4033L49.5639 83.2892L49.5119 83.6055L50.1362 83.7065L50.0998 83.9217L49.4781 83.818L49.4235 84.142L50.1414 84.2586L50.1076 84.4711L49.1425 84.3156L49.3532 83.0352ZM48.4558 82.8175L48.7003 82.872L48.4662 83.9087L49.0125 84.0305L48.963 84.2482L48.1827 84.072L48.4558 82.8175ZM46.8951 82.3976L47.9174 82.6828L47.8549 82.8953L47.4673 82.7864L47.1734 83.8232L46.9315 83.7558L47.2254 82.719L46.8352 82.6102L46.8951 82.3976ZM46.635 82.6568C46.5869 82.5985 46.5319 82.5463 46.4711 82.5013C46.4205 82.4636 46.3643 82.4339 46.3046 82.4132C46.2595 82.394 46.2094 82.3895 46.1615 82.4002C46.1432 82.4034 46.1262 82.4117 46.1124 82.424C46.0986 82.4364 46.0886 82.4524 46.0835 82.4702C46.0765 82.4857 46.0728 82.5025 46.0728 82.5195C46.0728 82.5364 46.0765 82.5532 46.0835 82.5687C46.1019 82.6002 46.1247 82.629 46.1511 82.6542L46.276 82.7475C46.3396 82.7913 46.4004 82.8389 46.4581 82.8901C46.5029 82.9324 46.5368 82.9848 46.5569 83.043C46.5816 83.1108 46.5816 83.1851 46.5569 83.253C46.5348 83.3239 46.49 83.3858 46.4295 83.4292C46.3671 83.4715 46.2941 83.4957 46.2188 83.4992C46.1304 83.506 46.0417 83.4936 45.9586 83.4629C45.8632 83.4308 45.7748 83.3807 45.6985 83.3152C45.6215 83.2529 45.5563 83.1774 45.506 83.0923L45.6725 82.9264C45.7151 83.0034 45.7705 83.0726 45.8364 83.1311C45.8954 83.1832 45.9632 83.2244 46.0367 83.253C46.0906 83.2733 46.1493 83.2778 46.2058 83.2659C46.227 83.2607 46.2466 83.25 46.2625 83.235C46.2785 83.2201 46.2903 83.2012 46.2968 83.1804C46.3033 83.1652 46.3067 83.1489 46.3067 83.1324C46.3067 83.1159 46.3033 83.0996 46.2968 83.0845C46.2798 83.0513 46.2559 83.0221 46.2266 82.999C46.1864 82.9641 46.1438 82.932 46.0991 82.9031C46.0356 82.8601 45.9748 82.8134 45.917 82.7631C45.8722 82.7218 45.8382 82.6702 45.8182 82.6128C45.7935 82.5458 45.7935 82.4723 45.8182 82.4054C45.8394 82.3389 45.8813 82.2808 45.9378 82.2395C45.9984 82.1971 46.0695 82.172 46.1433 82.167C46.2315 82.1631 46.3197 82.1754 46.4034 82.2033C46.4827 82.2313 46.5579 82.2697 46.6272 82.3173C46.6939 82.3637 46.7535 82.4196 46.804 82.4832L46.635 82.6568ZM45.4904 81.8793L45.7219 81.9674L45.2537 83.1778L45.0196 83.0871L45.4904 81.8793ZM44.2522 82.1022L44.5124 82.2188C44.5805 82.2536 44.6587 82.2636 44.7335 82.2473C44.7658 82.2366 44.7953 82.2187 44.8197 82.1948C44.844 82.171 44.8626 82.142 44.8739 82.1099C44.8894 82.0803 44.8975 82.0474 44.8975 82.014C44.8975 81.9807 44.8894 81.9478 44.8739 81.9182C44.8341 81.8526 44.7724 81.803 44.6997 81.7782L44.4395 81.6616L44.2522 82.1022ZM44.5332 82.8797L44.4785 82.4391L44.4343 82.421L44.1742 82.3043L44.0233 82.6568L43.7918 82.5583L44.3121 81.3661L44.8089 81.5812C44.9411 81.6269 45.0521 81.719 45.121 81.8404C45.148 81.8957 45.162 81.9564 45.162 82.0179C45.162 82.0794 45.148 82.1401 45.121 82.1955C45.087 82.2799 45.0303 82.3534 44.9572 82.408C44.8868 82.4581 44.8017 82.4836 44.7153 82.4806L44.8089 82.999L44.5332 82.8797ZM43.0349 80.7544L43.2612 80.8633L43.0141 81.3609L43.5967 81.646L43.8412 81.1484L44.065 81.2572L43.4901 82.421L43.269 82.3121L43.5005 81.8404L42.9178 81.5553L42.6863 82.027L42.4626 81.9182L43.0349 80.7544ZM42.6291 80.9618C42.6191 80.8932 42.5923 80.8282 42.551 80.7726C42.5158 80.7171 42.4676 80.6708 42.4106 80.6378C42.3449 80.5972 42.2693 80.5757 42.1921 80.5756C42.1161 80.5732 42.041 80.593 41.9762 80.6326C41.9072 80.6694 41.8504 80.7252 41.8123 80.7933C41.7715 80.8596 41.7499 80.9358 41.7499 81.0136C41.747 81.0899 41.7659 81.1654 41.8045 81.2313C41.8423 81.2987 41.8981 81.3543 41.9658 81.392C42.0214 81.4249 42.0835 81.4453 42.1479 81.4516C42.2148 81.4603 42.2829 81.4559 42.3482 81.4387L42.3898 81.6538C42.2957 81.6786 42.1977 81.6856 42.101 81.6745C42.0092 81.6647 41.9205 81.6356 41.8409 81.589C41.7314 81.5288 41.6412 81.4389 41.5808 81.3298C41.5203 81.2297 41.4888 81.1149 41.4898 80.998C41.4916 80.8793 41.5248 80.763 41.586 80.6611C41.6443 80.5586 41.7297 80.474 41.8329 80.4164C41.9361 80.3589 42.0531 80.3305 42.1713 80.3345C42.2791 80.3376 42.3848 80.3651 42.4803 80.415C42.5759 80.4648 42.6588 80.5357 42.7227 80.6222C42.7803 80.6994 42.8211 80.7876 42.8424 80.8814L42.6291 80.9618Z" fill="#221F1F"/>
</g>
</svg>
