<svg width="70" height="51" viewBox="0 0 70 51" fill="none" xmlns="http://www.w3.org/2000/svg">
<g id="Layer_1" clip-path="url(#clip0_1628_217)">
<path id="Vector" d="M0 34.9397C0.104362 34.3149 0.186037 33.6833 0.319894 33.0653C1.13664 29.2553 3.15356 26.2428 6.39561 24.0822C6.88792 23.755 7.01497 23.4938 6.8607 22.8871C5.93505 19.268 6.70869 16.0169 9.37447 13.386C12.0312 10.7619 15.2641 9.99856 18.8873 10.9573C19.062 11.0028 19.2367 11.0505 19.4137 11.0959C19.4318 11.1004 19.4568 11.0868 19.3275 11.1209C20.3325 9.65778 21.1516 8.19012 22.2315 6.94738C26.9346 1.5334 32.9105 -0.863473 39.9935 0.277029C47.8661 1.54476 53.0366 6.234 55.6116 13.7677C55.97 14.815 56.1266 15.9374 56.3013 17.037C56.3694 17.4618 56.5372 17.6004 56.9207 17.689C64.7932 19.4861 70.3108 26.7267 69.9864 34.8124C69.696 42.0371 64.9021 48.3031 57.9824 50.3751C56.7346 50.7477 55.3892 50.9385 54.087 50.9567C49.5767 51.0271 45.0642 50.984 40.5539 50.984C40.2862 50.984 40.0185 50.984 39.7099 50.984V35.8234C39.9413 35.8098 40.1614 35.7871 40.3792 35.7871C41.6089 35.7826 42.8408 35.7712 44.0705 35.7894C44.8532 35.8007 45.5882 35.753 46.008 34.951C46.43 34.1445 46.0397 33.5152 45.5814 32.8836C43.8935 30.5594 42.2169 28.2284 40.5357 25.8997C39.1745 24.014 37.8178 22.1261 36.4543 20.2449C35.54 18.984 34.4419 18.9817 33.5321 20.2449C30.4625 24.4957 27.3974 28.7487 24.3301 32.9995C24.2643 33.0926 24.1962 33.1835 24.1327 33.2789C23.7697 33.8083 23.6653 34.3671 23.9761 34.9533C24.2824 35.5326 24.7861 35.7871 25.4349 35.7871C27.0276 35.7826 28.618 35.7871 30.2674 35.7871V50.9885H29.4416C24.4753 50.9885 19.5067 50.968 14.5404 50.993C9.57866 51.018 5.81027 48.7802 2.93576 44.8839C1.3794 42.7755 0.465094 40.3832 0.131587 37.775C0.115706 37.6478 0.0476437 37.5274 0.00226875 37.4024C0.00226875 36.58 0.00226875 35.7598 0.00226875 34.9374L0 34.9397Z" fill="#00A551"/>
</g>
<defs>
<clipPath id="clip0_1628_217">
<rect width="70" height="51" fill="white"/>
</clipPath>
</defs>
</svg>
