<svg width="40" height="40" viewBox="0 0 40 40" fill="none" xmlns="http://www.w3.org/2000/svg">
<g id="user-edit-01">
<path id="Vector" d="M17.5002 36.6666H10.9849C8.40931 36.6666 6.36068 35.4132 4.52126 33.6609C0.755773 30.0734 6.93816 27.2066 9.29611 25.8026C13.5469 23.2714 18.6763 22.6862 23.3335 24.0467" stroke="white" stroke-width="1.5" stroke-linecap="round" stroke-linejoin="round"/>
<path id="Vector_2" d="M27.5 10.8333C27.5 14.9754 24.1422 18.3333 20 18.3333C15.8579 18.3333 12.5 14.9754 12.5 10.8333C12.5 6.69112 15.8579 3.33325 20 3.33325C24.1422 3.33325 27.5 6.69112 27.5 10.8333Z" stroke="white" stroke-width="1.5"/>
<path id="Vector_3" d="M30.7218 23.0809C31.2806 22.4753 31.5601 22.1726 31.857 21.9959C32.5735 21.5698 33.4558 21.5566 34.1843 21.9609C34.4861 22.1286 34.7741 22.4229 35.3503 23.0113C35.9263 23.5998 36.2143 23.8941 36.3785 24.2024C36.7743 24.9466 36.7613 25.8479 36.3441 26.5798C36.1713 26.8831 35.875 27.1686 35.2821 27.7396L28.2295 34.5324C27.1061 35.6144 26.5445 36.1554 25.8425 36.4296C25.1406 36.7038 24.3688 36.6836 22.8255 36.6433L22.6155 36.6378C22.1456 36.6254 21.9108 36.6193 21.7741 36.4643C21.6376 36.3093 21.6563 36.0699 21.6935 35.5914L21.7138 35.3314C21.8188 33.9844 21.8711 33.3109 22.1343 32.7054C22.3973 32.0999 22.851 31.6084 23.7585 30.6251L30.7218 23.0809Z" stroke="#FFD53A" stroke-width="1.5" stroke-linejoin="round"/>
</g>
</svg>
